<?xml version="1.0" encoding="iso-8859-1"?>
<!-- Generator: Adobe Illustrator 19.0.0, SVG Export Plug-In . SVG Version: 6.00 Build 0)  -->
<svg version="1.1" id="Capa_1" xmlns="http://www.w3.org/2000/svg" xmlns:xlink="http://www.w3.org/1999/xlink" x="0px" y="0px" width="40px" height="40px"
	 viewBox="0 0 512 512" style="enable-background:new 0 0 512 512;" xml:space="preserve" >
<circle style="fill:#F44336;" cx="256" cy="112" r="112"/>
<path d="M256,224c-61.856,0-112-50.144-112-112S194.144,0,256,0s112,50.144,112,112S317.856,224,256,224z M256,32
	c-44.183,0-80,35.817-80,80s35.817,80,80,80s80-35.817,80-80S300.183,32,256,32z"/>
<path d="M256,464c-8.837,0-16-7.163-16-16V208c0-8.837,7.163-16,16-16s16,7.163,16,16v240C272,456.837,264.837,464,256,464z"/>
<path d="M288,128c-8.837,0-16-7.163-16-16s-7.163-16-16-16s-16-7.163-16-16s7.163-16,16-16c26.51,0,48,21.49,48,48
	C304,120.837,296.837,128,288,128z"/>
<path d="M128,512c-8.837,0-16-7.163-16-16c0-6.664,4.13-12.63,10.368-14.976l256-96c8.27-3.113,17.498,1.068,20.611,9.338
	c3.113,8.27-1.068,17.498-9.338,20.611c-0.003,0.001-0.006,0.002-0.008,0.003l-256,96C131.833,511.658,129.924,512.005,128,512z"/>
<path d="M384,512c-1.924,0.005-3.833-0.342-5.632-1.024l-256-96c-8.272-3.108-12.458-12.334-9.35-20.605
	c3.108-8.272,12.334-12.458,20.605-9.35c0.003,0.001,0.006,0.002,0.008,0.003l256,96c8.271,3.111,12.454,12.337,9.344,20.608
	C396.63,507.87,390.664,512,384,512z"/>
<g>
</g>
<g>
</g>
<g>
</g>
<g>
</g>
<g>
</g>
<g>
</g>
<g>
</g>
<g>
</g>
<g>
</g>
<g>
</g>
<g>
</g>
<g>
</g>
<g>
</g>
<g>
</g>
<g>
</g>
</svg>
